<mxfile host="app.diagrams.net" modified="2023-10-24T09:03:02.242Z" agent="Mozilla/5.0 (Windows NT 10.0; Win64; x64) AppleWebKit/537.36 (KHTML, like Gecko) Chrome/95.0.4638.69 Safari/537.36" version="22.0.6" etag="Td3lFaaFILpiHH5EILrn" type="github">
  <diagram name="第 1 页" id="RV6nPJ-AqovXZHSH3DK2">
    <mxGraphModel>
      <root>
        <mxCell id="0" />
        <mxCell id="1" parent="0" />
      </root>
    </mxGraphModel>
  </diagram>
</mxfile>
